<svg width="1240" height="3000" viewBox="0 0 1240 3000" fill="none" xmlns="http://www.w3.org/2000/svg">
<rect width="1240" height="3000" fill="#F5F3E4"/>
<path d="M496 66C496 83.1208 482.121 97 465 97C447.879 97 434 83.1208 434 66C434 48.8792 447.879 35 465 35C482.121 35 496 48.8792 496 66Z" stroke="black" stroke-width="8"/>
<path d="M782 78C782 95.1208 768.121 109 751 109C733.879 109 720 95.1208 720 78C720 60.8792 733.879 47 751 47C768.121 47 782 60.8792 782 78Z" fill="black" stroke="black" stroke-width="8"/>
<path d="M554.821 263.303L565.373 241.88C567.999 236.548 572.774 232.591 578.5 231C583.469 229.675 588.616 229.145 593.75 229.431L595 229.5L600.226 230.422C602.404 230.807 604.613 231 606.825 231C609.93 231 613.023 230.619 616.035 229.866L617.5 229.5C619.827 229.168 622.182 229.079 624.528 229.235L628.5 229.5L635.736 230.777C636.575 230.925 637.393 231.178 638.168 231.531C640.912 232.778 642.959 235.182 643.752 238.09L645.963 246.197C646.651 248.72 647.689 251.134 649.046 253.369L652.686 259.365C654.557 262.446 656.088 265.72 657.255 269.13L659.308 275.132C661.09 280.341 662 285.81 662 291.316V298L659.5 319L657.911 326.549C656.325 334.081 653.022 341.146 648.258 347.192L646.055 349.988C643.693 352.986 640.995 355.704 638.015 358.088L635 360.5L628.227 367.002C624.481 370.598 619.819 373.096 614.75 374.222C610.957 375.065 607.032 375.119 603.217 374.381L599.391 373.64C595.525 372.892 591.908 371.189 588.868 368.685C586.318 366.585 584.237 363.973 582.759 361.018L582.089 359.678C580.384 356.268 577.946 353.279 574.948 350.924C573.322 349.646 571.855 348.177 570.579 346.55L558 330.5L551 319L549.397 316.062C546.512 310.772 545 304.843 545 298.817C545 295.292 545.518 291.785 546.537 288.41L551.809 270.945C552.602 268.32 553.609 265.763 554.821 263.303Z" fill="#9C8A7A" stroke="black"/>
<path d="M569.676 235.882L568 237C567.567 237.289 567.026 236.831 567.24 236.356L571 228L576 214.5L580.5 204L587.5 183.5L591 172L594.5 162L595.5 158L596.092 154.449C596.363 152.819 596.5 151.17 596.5 149.517V147.5V147.017C596.5 145.747 595.902 144.552 594.887 143.79C594.63 143.597 594.351 143.436 594.056 143.31L592.567 142.672C591.525 142.225 590.442 141.88 589.333 141.643L584 140.5L573.5 139.5L556.199 138.234C554.072 138.078 551.969 137.697 549.923 137.095L544.5 135.5L536 132L525.333 127.636C525.112 127.546 524.903 127.429 524.71 127.287C522.429 125.614 523.612 122 526.441 122H533L544.5 121.5L549.801 120.616C550.259 120.54 550.69 120.348 551.053 120.058L551.948 119.341C552.543 118.865 552.676 118.013 552.253 117.38C552.088 117.132 551.852 116.941 551.576 116.831L547 115L536 112L528.905 109.339C525.659 108.122 522.65 106.352 520.009 104.108L515.825 100.551C514.613 99.521 513.532 98.3454 512.608 97.0511L509.564 92.7899C509.197 92.2762 509 91.6606 509 91.0292V89.919C509 88.8592 509.859 88 510.919 88C511.298 88 511.668 88.1121 511.983 88.3223L517.5 92L519.501 93.5393C522.466 95.8202 525.884 97.4432 529.525 98.3C531.502 98.7651 533.526 99 535.556 99H547L563.5 97L578.5 94.5L586.213 93.0167C589.71 92.3443 593.298 92.2997 596.811 92.8851L598.486 93.1644C601.8 93.7167 604.983 94.8786 607.873 96.5914C613.742 100.069 618.088 105.627 620.049 112.162L620.877 114.922C621.292 116.306 621.606 117.717 621.818 119.146L625.5 144L627.33 167.791C627.443 169.262 627.665 170.722 627.993 172.16L634 198.5L640.984 230.801C641.38 232.631 639.434 234.075 637.797 233.165C637.6 233.056 637.388 232.978 637.167 232.933L630 231.5L625.768 230.849C624.258 230.617 622.733 230.5 621.206 230.5H620.293C618.104 230.5 615.922 230.74 613.785 231.214L613.338 231.314C609.808 232.098 606.166 232.238 602.587 231.727L601 231.5L596.111 230.802C594.705 230.601 593.288 230.5 591.868 230.5H589L580 231.5L579.041 231.74C575.705 232.574 572.537 233.975 569.676 235.882Z" fill="black"/>
<path d="M546 225L564.699 235.334C564.896 235.443 565.118 235.5 565.344 235.5C566.334 235.5 566.979 236.543 566.536 237.429L565.5 239.5L563 245L557 257L553.5 264L551.979 267.345C551.327 268.78 550.79 270.263 550.371 271.782L547 284L545.626 288.398C544.878 290.79 544.433 293.266 544.302 295.769L544.198 297.736C544.067 300.235 544.248 302.742 544.739 305.196L544.805 305.527C545.267 307.834 545.998 310.079 546.984 312.216L548.5 315.5L553 324L561 335.5L565.5 341.5L573.5 350.5C568.465 349.908 563.646 352.716 561.679 357.388L561.431 357.976C561.144 358.657 560.92 359.363 560.76 360.085L552.5 397.5L550 418L539 416.5L521.5 412L541 365L553.85 338.348C554.278 337.461 554.5 336.489 554.5 335.504V333.141C554.5 332.428 554.144 331.762 553.55 331.367C552.469 330.646 551 331.052 550.441 332.225L527 381.5L517.04 404.588C516.348 406.193 515.517 407.734 514.556 409.194L503.5 426L489.5 419L475 412L464.5 407L478 390L497.5 363L510.5 341.5L524.5 320L532.133 304.734C532.686 303.628 532.753 302.342 532.319 301.185C531.806 299.817 530.654 298.788 529.236 298.434L528.735 298.309C526.75 297.813 524.656 298.474 523.316 300.02L512.5 312.5L495.5 332L475 354L444 391L434.5 402L431.508 399.008C430.504 398.004 429.43 397.073 428.294 396.221L420 390L409 381.5L396 371L423 349.5L459 322L485 300.5L499 288.5L501.747 285.753C502.87 284.63 503.5 283.108 503.5 281.521V280.464C503.5 278.943 502.675 277.542 501.346 276.803C499.916 276.009 498.155 276.12 496.836 277.087L491.5 281L474 292L453.5 303L428 316L385 341.5L376 347.5L367.441 352.391C366.387 352.993 365.043 352.586 364.5 351.5L355 336.5L342.5 319L332.5 305L361.5 296L408 280L462.5 261L469.5 258L473.134 255.981C473.669 255.684 474 255.121 474 254.51C474 254.177 473.902 253.852 473.717 253.576L473.277 252.916C472.479 251.719 471.136 251 469.697 251H468.83C468.279 251 467.732 251.077 467.202 251.228L457.5 254L439.5 258L405 263L385.5 267L364.5 272L344 276.5L321 281.5L312 256.5L308.848 248.225C308.283 246.744 307.603 245.31 306.812 243.936L298.5 229.5L434 232H446.5H453C454.381 232 455.5 230.881 455.5 229.5L455.338 227.714C455.12 225.325 454.015 223.105 452.241 221.492C450.477 219.888 448.179 219 445.796 219H436.5L411 215.5L382.5 210.5L363 206.5L331 199L316 196.5L295.5 194.5V126.5L320 138.5L347.5 153L392 174.5L412.988 182.713C414.328 183.237 415.703 183.664 417.104 183.991L430 187L424.75 181.75L419.5 176.5L418.5 175.5L389.5 153L360 129L325 100.5L317 93L305.5 84L293 75L299.5 66.5L311 48L315.5 40.5C317.789 36.9023 319.312 32.8165 319.915 28.5949L321 21L326.5 29.5L341.5 47.5L366 76L397 109.5L442 148.5L482 183.5L520.5 209.5L546 225Z" fill="black"/>
<path d="M662.425 228.803L648.738 241.283C648.58 241.427 648.407 241.556 648.223 241.666C646.924 242.445 646.341 244.023 646.82 245.46L647.771 248.314C647.923 248.77 648.122 249.209 648.364 249.624L651.5 255L655 261L657.5 267L659.5 273.5L660.864 278.275C661.287 279.756 661.596 281.268 661.787 282.796L662.5 288.5V295.5L662.338 297.608C662.114 300.52 662.316 303.45 662.939 306.304L668 329.5L673 351.5L681 380L688 420L716.5 415.5L741.5 412L722.5 384L704.5 354L686.5 319.5L678.51 305.87C678.176 305.3 678 304.652 678 303.992V303.396C678 301.205 680.112 299.634 682.21 300.263C682.729 300.419 683.2 300.7 683.583 301.083L694.5 312L712 332.5L741.5 367L767 403L781 393.5L793 384L810.5 373L786 353L754.5 327.5L730.5 306L715.452 292.722C714.153 291.576 712.956 290.32 711.874 288.968L709.5 286L708.91 285.056C707.821 283.314 708.21 281.032 709.814 279.749C711.13 278.696 712.959 278.568 714.408 279.427L725.5 286L749 299L777.5 316L801.5 329.5L835 354L854 329.5L876.5 304.5L869 302.5L833.5 292L799 280L769.5 268L742.363 257.824C741.802 257.613 741.321 257.232 740.989 256.733C739.627 254.691 741.303 251.996 743.736 252.313L749 253L769.5 257.5L790.5 261L839.5 270L890.5 283.5L919.5 227.5L871 229L816 231H769.5H764H762.243C760.156 231 758.866 228.723 759.94 226.933C760.299 226.335 760.877 225.899 761.551 225.72L775.5 222L833.5 212L927.5 196.5L936 159L944.5 124L924 133L881 153L844 171L816 184L785.5 195.5L807 177L830 157.5L864 132L888 111L922.5 87L940 71L939.173 70.5405C936.736 69.1868 934.5 67.5 932.529 65.529L929.601 62.6005C928.204 61.2036 926.948 59.6721 925.852 58.0283L922.5 53L916.576 41.1521C915.2 38.4004 914.256 35.4535 913.776 32.4146L911.5 18L888 47L858 80L817.81 121.147C816.606 122.38 815.297 123.507 813.899 124.515L785.5 145L732 186L709 202.5L687.5 215L669.222 224.139C666.752 225.374 664.465 226.943 662.425 228.803Z" fill="black"/>
<path d="M565.496 437.226L594.739 373.733C595.165 372.809 596.3 372.459 597.173 372.984C597.686 373.293 598 373.849 598 374.448V379.906V394.73L581.748 478.24L560.571 559.772L544.32 629.446L537.425 667L501.474 665.023H467L497.041 599.303L531.023 518.265L565.496 437.226Z" fill="black"/>
<path d="M593 475L602.5 375.5C602.5 374.724 603.21 374.142 603.971 374.294L605 374.5L608.27 374.967C608.423 374.989 608.578 375 608.732 375H611.5C611.776 375 612 375.224 612 375.5C612 376.166 612.054 376.83 612.16 377.487L618.5 416.5L627 500L631 548L638 613L650 672H574L577 651L585.5 585L593 513V475Z" fill="black"/>
<path d="M619 394L615.093 375.444C615.035 375.167 615.121 374.879 615.321 374.679C615.438 374.562 615.587 374.483 615.749 374.45L617.418 374.116C617.805 374.039 618.184 373.926 618.551 373.78L620.5 373C622.239 372.42 624.145 373.161 625.036 374.764L628.5 381L643 408L682.5 498L718 579.5L755.5 662.5L689 671L666 585.5L632 451L619 394Z" fill="black"/>
<circle cx="408" cy="512" r="90.5" stroke="black" stroke-width="3"/>
<circle cx="407.5" cy="512.5" r="81.5" stroke="black" stroke-width="6"/>
<circle cx="408" cy="512" r="73" stroke="black" stroke-width="6"/>
<circle cx="407.5" cy="512.5" r="63.5" stroke="black" stroke-width="6"/>
<circle cx="408" cy="512" r="54" stroke="black" stroke-width="6"/>
<circle cx="408" cy="512" r="45" stroke="black" stroke-width="6"/>
<circle cx="408" cy="512" r="36" stroke="black" stroke-width="6"/>
<path d="M435 512C435 526.912 422.912 539 408 539C401.069 539 394.747 534.611 390.004 527.756C385.278 520.926 382.5 512.142 382.5 504.5C382.5 501.001 383.511 498.418 385.07 496.38C386.67 494.288 388.966 492.62 391.736 491.21C394.509 489.799 397.596 488.725 400.675 487.727C401.182 487.563 401.694 487.399 402.207 487.235C404.448 486.519 406.7 485.799 408.602 485.007C423.236 485.327 435 497.289 435 512Z" stroke="black" stroke-width="6"/>
<circle cx="408" cy="512" r="18" fill="black" stroke="black" stroke-width="6"/>
<circle cx="832" cy="512" r="90.5" stroke="black" stroke-width="3"/>
<circle cx="831.5" cy="512.5" r="81.5" stroke="black" stroke-width="6"/>
<circle cx="832" cy="512" r="73" stroke="black" stroke-width="6"/>
<circle cx="831.5" cy="512.5" r="63.5" stroke="black" stroke-width="6"/>
<circle cx="832" cy="512" r="54" stroke="black" stroke-width="6"/>
<circle cx="832" cy="512" r="45" stroke="black" stroke-width="6"/>
<circle cx="832" cy="512" r="36" stroke="black" stroke-width="6"/>
<path d="M859 512C859 526.912 846.912 539 832 539C825.069 539 818.747 534.611 814.004 527.756C809.278 520.926 806.5 512.142 806.5 504.5C806.5 501.001 807.511 498.418 809.07 496.38C810.67 494.288 812.966 492.62 815.736 491.21C818.509 489.799 821.596 488.725 824.675 487.727C825.182 487.563 825.694 487.399 826.207 487.235C828.448 486.519 830.7 485.799 832.602 485.007C847.236 485.327 859 497.289 859 512Z" stroke="black" stroke-width="6"/>
<circle cx="832" cy="512" r="18" fill="black" stroke="black" stroke-width="6"/>
<path d="M328 375C328 384.99 321.176 392 314 392C306.824 392 300 384.99 300 375C300 365.01 306.824 358 314 358C321.176 358 328 365.01 328 375Z" fill="black" stroke="black" stroke-width="8"/>
<path d="M348 645C348 654.99 341.176 662 334 662C326.824 662 320 654.99 320 645C320 635.01 326.824 628 334 628C341.176 628 348 635.01 348 645Z" fill="black" stroke="black" stroke-width="8"/>
<path d="M915 650C915 660.028 907.079 668 897.5 668C887.921 668 880 660.028 880 650C880 639.972 887.921 632 897.5 632C907.079 632 915 639.972 915 650Z" fill="black" stroke="black" stroke-width="8"/>
<path d="M919 375.5C919 388.846 909.248 399 898 399C886.752 399 877 388.846 877 375.5C877 362.154 886.752 352 898 352C909.248 352 919 362.154 919 375.5Z" fill="black" stroke="black" stroke-width="8"/>
<path d="M951 710V1623.48C951 1627 946.011 1627.71 945.034 1624.32C944.972 1624.11 944.887 1623.9 944.779 1623.71L930.12 1596.94C929.23 1595.32 928.193 1593.78 927.02 1592.35L913.635 1576L895.962 1554L876.27 1534.5L854.557 1517L835.37 1503.5L813.658 1491.5L789.421 1478.5L766.699 1467.5L742.462 1459.5L722.769 1453.5L700.552 1448L676.82 1444L651.573 1439.5L629.861 1436.5H543.012H527.359L503.627 1439.5L479.895 1444L449.599 1451L423.342 1458L401.63 1466L366.79 1478.5L336.494 1493.5L315.286 1504L301.653 1511L286 1519L286.505 682.5V682.421C286.505 682.174 286.532 681.929 286.584 681.691C286.676 681.271 286.847 680.872 287.088 680.515C287.012 680.277 287.182 680 287.466 680H287.515H921C937.568 680 951 693.431 951 710Z" fill="black"/>
<path d="M287.515 680H287.466C287.113 680 286.937 680.428 287.188 680.676V680.676C287.36 680.847 287.34 681.13 287.145 681.274L286.577 681.696C286.529 681.732 286.478 681.763 286.424 681.79L286 682M287.515 680H921C937.568 680 951 693.431 951 710V1623.48C951 1627 946.011 1627.71 945.034 1624.32V1624.32C944.972 1624.11 944.887 1623.9 944.779 1623.71L930.12 1596.94C929.23 1595.32 928.193 1593.78 927.02 1592.35L913.635 1576L895.962 1554L876.27 1534.5L854.557 1517L835.37 1503.5L813.658 1491.5L789.421 1478.5L766.699 1467.5L742.462 1459.5L722.769 1453.5L700.552 1448L676.82 1444L651.573 1439.5L629.861 1436.5H543.012H527.359L503.627 1439.5L479.895 1444L449.599 1451L423.342 1458L401.63 1466L366.79 1478.5L336.494 1493.5L315.286 1504L301.653 1511L286 1519L286.505 682.5V682.421C286.505 681.512 286.869 680.64 287.515 680V680Z" stroke="black" stroke-width="3"/>
<rect x="921" y="679" width="30" height="22" fill="black"/>
<path d="M351.681 898.489L360.362 890.984C360.454 890.904 360.552 890.831 360.654 890.766L361.351 890.322C361.747 890.07 362.253 890.07 362.649 890.322C363.142 890.636 363.339 891.257 363.118 891.798L359 901.854L351.5 921.922L348.929 927.381C347.65 930.097 346.786 932.989 346.366 935.961L344.5 949.157V962.231C344.5 965.595 345.066 968.935 346.174 972.112L348.64 979.181C348.879 979.868 349.188 980.529 349.561 981.153C350.505 982.73 351.837 984.039 353.432 984.953L354.432 985.526C355.471 986.122 356.597 986.552 357.768 986.801L359.344 987.136C360.104 987.297 360.891 987.274 361.64 987.07C363.125 986.664 364.331 985.581 364.894 984.148L365.311 983.085C365.437 982.764 365.586 982.453 365.757 982.153L370.17 974.421C371.055 972.871 372.076 971.403 373.222 970.035L377.5 964.924L382.644 957.984C384.862 954.992 386.503 951.613 387.484 948.02L387.941 946.347C388.644 943.772 389 941.115 389 938.446V928.611V908.568C389 906.329 388.749 904.096 388.253 901.913L384.595 885.834C384.199 884.094 383.649 882.393 382.951 880.752L378.774 870.927C377.927 868.935 377.298 866.856 376.899 864.728L374.516 852.04C374.173 850.214 374 848.36 374 846.502V830.228C374 827.975 374.254 825.73 374.756 823.534L377.5 811.548L382.027 798.571C382.674 796.715 383.502 794.928 384.499 793.234L390.273 783.426C391.421 781.475 392.785 779.661 394.341 778.018L399.526 772.542C400.839 771.155 402.282 769.897 403.834 768.784L413.5 761.856L425.721 754.608C427.237 753.708 428.83 752.944 430.481 752.324L442 748L432.5 760.423L419.5 780.491L412.72 793.449C411.908 795.001 411.234 796.62 410.705 798.289L407.903 807.123C406.973 810.056 406.5 813.114 406.5 816.191V824.361C406.5 827.271 406.924 830.166 407.757 832.954L410.557 842.32C411.184 844.415 412.038 846.436 413.104 848.346L419.5 859.807L426.355 870.288C428.433 873.465 429.889 877.007 430.646 880.727L432.398 889.337C432.798 891.306 433 893.31 433 895.319V913.321L429.937 936.317C429.647 938.499 429.117 940.642 428.358 942.709C426.061 948.961 422.838 957.743 422.5 958.713C422.332 959.194 421.335 960.086 420.05 961.076C416.528 963.791 413.273 966.878 410.908 970.645L410 972.091L404.418 982.76C403.155 985.173 401.37 987.274 399.192 988.91L398.482 989.442C396.525 990.912 394.233 991.873 391.813 992.238C388.08 992.801 384.273 991.914 381.173 989.76L380.5 989.292L375.698 986.539C375.566 986.464 375.428 986.4 375.285 986.349C373.517 985.715 371.686 987.126 371.849 988.998L372.5 996.46V1000.29C372.5 1004.1 370.38 1007.6 367 1009.36L365.032 1010.3C361.957 1011.77 360 1014.87 360 1018.28C360 1018.7 360.03 1019.13 360.091 1019.54L361.587 1029.91C361.862 1031.81 362.319 1033.69 362.953 1035.5L367 1047.11L379.5 1071.95L390 1091.54L400.5 1114L384.5 1103.01L372 1092.98L360 1081.51L347.053 1067.43C346.019 1066.31 345.073 1065.1 344.222 1063.84L334.589 1049.48C333.532 1047.9 332.627 1046.23 331.886 1044.48L325.5 1029.43L320.631 1012.93C320.211 1011.51 319.897 1010.06 319.692 1008.59L317.416 992.275C317.139 990.292 317.062 988.285 317.185 986.286L318.328 967.716C318.442 965.859 318.729 964.016 319.185 962.212L322 951.068L326.998 934.749C327.664 932.575 328.575 930.484 329.713 928.516L337.101 915.74C338.032 914.131 339.11 912.612 340.321 911.202L348.552 901.627C349.516 900.506 350.562 899.457 351.681 898.489Z" fill="#9C8A7A"/>
<path d="M419.178 1269.67L408.5 1242L404 1232.5L400.5 1222L398 1212L396 1198L395 1181.5V1139L397 1124.5L401.5 1108.5L408 1089.5L415.5 1070.5L422 1055.5L432 1038L442 1022.5L457.5 997L466.5 981.5L478.5 959L484.5 949L494.116 932.653C494.372 932.218 494.594 931.765 494.781 931.297L502.5 912L505.63 905.74C505.876 905.248 506.081 904.735 506.243 904.209L507.742 899.339C507.913 898.783 508 898.202 508 897.62C508 895.677 507.029 893.852 505.412 892.774C505.138 892.592 504.849 892.433 504.548 892.299L500.5 890.5L492 887L483.259 883.78C482.754 883.594 482.264 883.367 481.796 883.102L471 877L464.117 871.952C463.706 871.651 463.319 871.319 462.959 870.959L458.451 866.451C457.494 865.494 456.741 864.352 456.238 863.094L453.715 856.788C453.243 855.607 453 854.346 453 853.074V840.99C453 840.332 453.065 839.675 453.194 839.029L454.667 831.665C454.887 830.563 455.292 829.506 455.864 828.538L461.065 819.737C461.354 819.247 461.685 818.782 462.054 818.348L469.199 809.942C469.731 809.316 470.338 808.759 471.006 808.281L480.5 801.5L490.727 795.457C491.241 795.153 491.782 794.896 492.342 794.688L504.226 790.287C504.741 790.096 505.271 789.948 505.811 789.844L517.064 787.68C517.687 787.56 518.319 787.5 518.953 787.5H540.902C541.632 787.5 542.359 787.42 543.072 787.262L550.023 785.717C550.673 785.573 551.306 785.364 551.915 785.093L559.118 781.892C559.705 781.631 560.265 781.315 560.791 780.946L570 774.5L579.5 767L590 759L597 752L599.232 749.768C600.364 748.636 601.899 748 603.5 748C605.101 748 606.636 748.636 607.768 749.768L607.796 749.796C608.262 750.262 608.65 750.801 608.945 751.39L609.111 751.722C609.696 752.891 610 754.181 610 755.488V755.811C610 757.253 609.682 758.676 609.068 759.98L606 766.5L601 776.5L593.125 789.47C592.71 790.154 592.214 790.786 591.648 791.352L584.37 798.63C583.792 799.208 583.145 799.713 582.444 800.133L576 804L564.148 813.007C563.717 813.335 563.313 813.698 562.94 814.091L554.5 823L552.439 825.355C551.511 826.416 551 827.777 551 829.185C551 829.726 551.075 830.264 551.224 830.783L551.59 832.066C551.862 833.017 552.273 833.922 552.81 834.752L556.924 841.111C557.307 841.702 557.751 842.251 558.249 842.749L561.5 846L565.847 851.651C566.281 852.216 566.654 852.824 566.958 853.468L570.609 861.175C570.867 861.718 571 862.312 571 862.913V866.848C571 868.409 569.26 869.34 567.961 868.474C567.13 867.92 566.015 868.082 565.376 868.849L564 870.5L557.5 879.5L549.897 893.756C549.633 894.251 549.411 894.768 549.233 895.3L545.5 906.5L542.217 919.632C542.073 920.21 541.98 920.799 541.941 921.392L541 935.5V954.5L539 977V989V1031.79C539 1032.26 539.034 1032.74 539.101 1033.2L540.5 1043L543 1061.5L544 1126.5V1142.5L545.916 1158.79C545.972 1159.26 546.062 1159.73 546.185 1160.19L550 1174.5L552.198 1181.97C552.399 1182.66 552.672 1183.32 553.013 1183.94L558.5 1194L565 1204.5L573 1215L583.458 1225.93C583.819 1226.31 584.209 1226.66 584.624 1226.98L594.5 1234.5L606 1242L616 1247L630 1253L638.03 1255.54C639.004 1255.84 640.02 1256 641.041 1256H657H681L694.182 1254.59C694.726 1254.53 695.265 1254.43 695.793 1254.28L704 1252L714.5 1249L729.5 1242.5L742.288 1237.29C742.762 1237.1 743.221 1236.87 743.66 1236.6L755.5 1229.5L767 1222L781 1212L793 1203L805 1192.5L818.5 1180.5L829.5 1168.5L840.5 1155L852.5 1138.5L861.5 1123L867.071 1110.93C867.356 1110.31 867.578 1109.67 867.732 1109L872.5 1088.5L874.352 1077.85C874.451 1077.28 874.5 1076.71 874.5 1076.14V1049.68C874.5 1048.9 874.407 1048.11 874.224 1047.35L871.707 1036.86C871.569 1036.29 871.381 1035.73 871.145 1035.19L868 1028L863 1018.5L876 1027L886.547 1040.9C886.849 1041.3 887.12 1041.72 887.359 1042.16L895.347 1056.8C895.78 1057.6 896.104 1058.45 896.309 1059.33L902.5 1086L904.5 1107V1137.33C904.5 1138.11 904.41 1138.88 904.232 1139.63L898.217 1165.08C898.073 1165.69 897.871 1166.29 897.616 1166.86L885.5 1194L860 1237L837.5 1263.5L803.523 1297.48C803.175 1297.83 802.802 1298.15 802.406 1298.44L761.174 1329C760.725 1329.33 760.25 1329.63 759.753 1329.88L703.164 1358.66C702.722 1358.89 702.264 1359.08 701.793 1359.24L668.893 1370.2C668.299 1370.4 667.688 1370.54 667.067 1370.63L623.5 1376.5H583.711C583.237 1376.5 582.765 1376.47 582.296 1376.4L558.5 1373L535.259 1366.71C534.754 1366.57 534.26 1366.39 533.783 1366.18L505.5 1353.5L476.5 1336L460.162 1323.03C459.722 1322.68 459.311 1322.29 458.935 1321.87L434.116 1294.19C433.706 1293.73 433.339 1293.24 433.02 1292.71L419.965 1271.26C419.656 1270.76 419.392 1270.22 419.178 1269.67Z" fill="#9C8A7A"/>
<ellipse cx="519" cy="820.5" rx="14" ry="13.5" fill="black"/>
<path d="M613.005 948.873L620.696 938.899L624.366 934.495C625.104 933.609 625.957 932.826 626.901 932.165L627.553 931.709C629.315 930.475 631.415 929.814 633.566 929.814C634.231 929.814 634.894 929.877 635.546 930.002L645.074 931.834C646.355 932.081 647.657 932.205 648.961 932.205H650.619C654.749 932.205 658.725 930.643 661.752 927.834C663.068 926.612 664.174 925.182 665.025 923.601L667.501 919.005C669.449 915.388 670.923 911.535 671.887 907.542L672.178 906.337C673.244 901.922 673.783 897.395 673.783 892.853V889.57C673.783 883.267 673.082 876.984 671.693 870.836L670.435 865.264L665.174 849.007L660.87 829.403L660.205 821.427C659.692 815.279 659.692 809.1 660.205 802.952L660.27 802.164C660.669 797.378 661.412 792.628 662.492 787.949L663.059 785.491C664.464 779.404 666.586 773.505 669.38 767.918C672.304 762.072 675.942 756.612 680.21 751.661L681.031 750.709C684.165 747.075 687.586 743.7 691.263 740.617L700.565 732.817L713 723.733L725.435 716.082L745.522 706.519L762.261 700.781L779.957 697.913L798.13 696L779.957 706.519L773.882 710.787C766.149 716.22 758.901 722.311 752.217 728.992L748.587 733.41C743.74 739.309 740.332 746.255 738.63 753.697C737.807 757.298 737.391 760.98 737.391 764.673V769.158C737.391 777.719 738.627 786.235 741.059 794.443L741.217 794.976C744.082 804.522 747.763 813.802 752.221 822.715L755.565 829.403L769.065 850.226C771.221 853.552 773.105 857.046 774.699 860.676C778.797 870.008 780.913 880.09 780.913 890.282V899.525C780.913 906.604 779.8 913.639 777.616 920.373C775.993 925.375 773.793 930.17 771.058 934.661L761.783 949.896L746.957 972.847L740.717 982.444C736.596 988.783 733.081 995.495 730.217 1002.49L729.043 1005.23C727.925 1007.84 727.348 1010.65 727.348 1013.49C727.348 1016.33 727.925 1019.14 729.043 1021.75L730.217 1024.49L730.666 1025.29C731.865 1027.45 734.139 1028.79 736.608 1028.79C737.442 1028.79 738.269 1028.64 739.047 1028.34L740.545 1027.76C742.872 1026.87 744.947 1025.42 746.594 1023.55L754.609 1014.45L763.696 1004.88L775.174 989.104L780.282 981.727C782.611 978.364 785.238 975.217 788.131 972.325C790.966 969.491 793.545 966.412 795.839 963.125L799.578 957.767C804.343 950.939 808.499 943.706 811.997 936.151L813.907 932.027C817.09 925.153 819.508 917.951 821.117 910.549C822.687 903.331 823.478 895.965 823.478 888.579V880.899C823.478 871.765 822.762 862.644 821.338 853.622L820.609 849.007L815.348 832.272L807.696 812.19L832.087 832.272L843.087 847.094L849.005 858.051C853.658 866.665 857.48 875.703 860.421 885.041L861.014 886.926C863.088 893.512 864.633 900.254 865.633 907.087C866.543 913.305 867 919.58 867 925.864V928.715C867 941.203 865.614 953.653 862.868 965.835L859.348 981.454L854.948 997.29C853.111 1003.9 850.209 1010.17 846.355 1015.85C844.181 1019.05 842.306 1022.45 840.754 1025.99L829.696 1051.26L807.217 1097.17L781.87 1142.11L759.87 1174.15L726.87 1210.96L705.348 1229.61L677.13 1243L693.391 1221.48L711.087 1198.53L715.758 1190.83C719.013 1185.46 721.753 1179.79 723.94 1173.9C725.89 1168.66 727.404 1163.2 728.444 1157.7C729.616 1151.51 730.217 1145.16 730.217 1138.86V1106.49C730.217 1103.16 729.725 1099.85 728.755 1096.67C727.51 1092.57 725.497 1088.76 722.824 1085.42L719.217 1080.91L712.105 1071.72C709.199 1067.97 706.581 1064 704.275 1059.85C701.806 1055.41 699.681 1050.71 697.963 1045.93C695.266 1038.42 693.487 1030.51 692.73 1022.56L691.957 1014.45V995.348C691.957 995.012 691.996 994.676 692.073 994.349C693.125 989.91 687.487 987.069 684.544 990.555L683.582 991.695C683.426 991.88 683.285 992.077 683.159 992.283L668.522 1016.36L661.731 1029.94C657.705 1037.99 655.609 1046.86 655.609 1055.86C655.609 1059.17 655.891 1062.46 656.452 1065.72L658 1074.69L659.429 1099.7C659.75 1105.32 659.329 1110.95 658.176 1116.46C656.481 1124.56 653.231 1132.25 648.606 1139.11L645.677 1143.46C642.422 1148.29 638.709 1152.79 634.59 1156.91L623.028 1168.47C621.476 1170.02 619.781 1171.42 617.963 1172.65L605.78 1180.88C604.039 1182.05 601.832 1182.3 599.875 1181.53C595.926 1179.99 594.55 1175.09 597.115 1171.72L611.609 1152.63L617.005 1145.08C621.319 1139.04 624.168 1132.08 625.326 1124.75C626.061 1120.09 626.104 1115.35 625.452 1110.68L624.83 1106.23C623.99 1100.21 622.448 1094.3 620.237 1088.64L615.913 1077.56L607.973 1061.39C604.664 1054.65 601.954 1047.64 599.876 1040.42L599.466 1039C596.417 1028.42 594.87 1017.47 594.87 1006.45V1002.1C594.87 993.796 596.055 985.539 598.39 977.574C601.437 967.182 606.393 957.449 613.005 948.873Z" fill="#9C8A7A" stroke="black"/>
<circle cx="399" cy="1578" r="57" fill="black"/>
<circle cx="769" cy="2004" r="57" fill="black"/>
<circle cx="505" cy="1878" r="154.5" stroke="black" stroke-width="57"/>
<circle cx="504.5" cy="1877.5" r="65.5" stroke="black" stroke-width="24"/>
<path d="M532 1880.5C532 1893.59 521.594 1904 509 1904C496.406 1904 486 1893.59 486 1880.5C486 1867.41 496.406 1857 509 1857C521.594 1857 532 1867.41 532 1880.5Z" stroke="black" stroke-width="14"/>
<path d="M519.5 1879C519.5 1883.07 515.555 1886.5 510.5 1886.5C505.445 1886.5 501.5 1883.07 501.5 1879C501.5 1874.93 505.445 1871.5 510.5 1871.5C515.555 1871.5 519.5 1874.93 519.5 1879Z" fill="black" stroke="black"/>
<path d="M467.5 2333.5C467.5 2338.94 462.213 2343.5 455.5 2343.5C448.787 2343.5 443.5 2338.94 443.5 2333.5C443.5 2328.06 448.787 2323.5 455.5 2323.5C462.213 2323.5 467.5 2328.06 467.5 2333.5Z" fill="black" stroke="black"/>
<circle cx="455.5" cy="2333.5" r="123" stroke="black" stroke-width="57"/>
<circle cx="455.5" cy="2333.5" r="42.5" stroke="black" stroke-width="30"/>
<path d="M710.566 1806.75L718.436 1831.37C719.19 1833.73 719.768 1836.14 720.165 1838.58L721.758 1848.4C722.188 1851.05 722.403 1853.73 722.403 1856.41V1863.98C722.403 1870.35 721.188 1876.66 718.822 1882.57L716.734 1887.78C713.936 1893.38 718.563 1899.81 724.757 1898.94L740.355 1896.75L755.945 1892.98L780.038 1884.48L795.628 1878.34L813.673 1869.52C816.439 1868.16 819.074 1866.56 821.545 1864.72L838.145 1852.38L853.234 1839.87C856.079 1837.52 858.653 1834.85 860.91 1831.93L870.269 1819.81L879.493 1803.95C881.213 1801 882.625 1797.87 883.707 1794.63L888.552 1780.11C889.9 1776.06 890.726 1771.86 891.01 1767.61L891.733 1756.78C891.911 1754.11 891.875 1751.44 891.625 1748.78L889.83 1729.65C889.389 1724.95 888.285 1720.33 886.552 1715.95L882.079 1704.62L874.523 1689.18C872.64 1685.33 870.269 1681.74 867.469 1678.49L859.876 1669.69L845.231 1652.7L831.531 1641.37L842.869 1668.28L851.372 1691.88L856.242 1707.97C857.088 1710.77 857.688 1713.64 858.033 1716.54L859.273 1726.94C859.674 1730.31 859.732 1733.71 859.445 1737.08L858.052 1753.51C857.695 1757.72 856.804 1761.87 855.4 1765.87L852.808 1773.24C851.853 1775.95 850.664 1778.58 849.256 1781.1L840.343 1797C838.88 1799.61 837.187 1802.08 835.282 1804.39L822.555 1819.81L821.378 1821.15C818.073 1824.92 812.044 1821.1 814.052 1816.5L821.138 1796.68L825.249 1779.22C826.283 1774.83 826.718 1770.32 826.542 1765.81L825.558 1740.57C825.446 1737.7 825.087 1734.84 824.484 1732.03L821.138 1716.43L819.209 1695.22C818.921 1692.06 818.935 1688.87 819.251 1685.71L821.138 1666.86L826.334 1644.2L810.221 1670.9C808.997 1672.92 807.919 1675.03 806.994 1677.21L796.572 1701.79L788.737 1716.58C788.295 1717.41 787.711 1718.17 787.012 1718.8L784.71 1720.89C783.602 1721.9 781.99 1722.12 780.652 1721.45C779.667 1720.96 778.959 1720.05 778.728 1718.97L777.932 1715.26C777.762 1714.47 777.676 1713.66 777.676 1712.84V1709.91C777.676 1706.4 778.148 1702.91 779.079 1699.52L782.872 1685.74L790.431 1664.5L791.952 1657.85C793.442 1651.33 793.611 1644.59 792.449 1638L792.361 1637.51C791.706 1633.8 790.635 1630.18 789.166 1626.71L786.179 1619.65L777.676 1602.19L774.711 1593.07C772.615 1586.63 771.851 1579.83 772.465 1573.08L772.542 1572.23C772.815 1569.24 773.357 1566.27 774.163 1563.37L776.381 1555.39C777.242 1552.29 778.4 1549.29 779.84 1546.41L786.179 1533.74L798.934 1520.05L815.469 1506.83L771.534 1522.41L746.642 1542.83C742.17 1546.5 738.368 1550.91 735.406 1555.88L731.644 1562.19C728.349 1567.72 726.152 1573.83 725.173 1580.19L723.93 1588.26C723.231 1592.8 723.161 1597.42 723.723 1601.98L725.794 1618.8C726.365 1623.44 727.585 1627.97 729.416 1632.27L734.588 1644.42C735.596 1646.78 736.358 1649.25 736.863 1651.77L738.314 1659.02C739.319 1664.04 738.311 1669.26 735.505 1673.55L735.276 1673.9C733.056 1677.29 729.773 1679.85 725.941 1681.18C721.828 1682.6 717.343 1682.51 713.289 1680.93L712.947 1680.79C710.156 1679.7 707.658 1677.98 705.65 1675.75L694.384 1663.28C692.282 1660.95 690.404 1658.43 688.774 1655.75L681.16 1643.23C678.129 1638.25 675.994 1632.78 674.85 1627.06L672.355 1614.6C671.708 1611.37 671.383 1608.08 671.383 1604.79V1578.68C671.383 1573.3 672.25 1567.96 673.952 1562.86L682.721 1536.57L696.421 1504L671.383 1525.71L643.49 1561.67C640.372 1565.68 637.886 1570.15 636.117 1574.92L625.12 1604.56C623.842 1608 622.947 1611.58 622.452 1615.22L619.084 1640C618.366 1645.28 618.498 1650.65 619.476 1655.89L625.432 1687.84C626.454 1693.33 628.387 1698.6 631.15 1703.45L645.937 1729.38C648.709 1734.24 652.277 1738.6 656.492 1742.28L685.527 1767.63C689.304 1770.92 692.563 1774.77 695.196 1779.04L705.49 1795.72C707.625 1799.18 709.329 1802.88 710.566 1806.75Z" fill="black" stroke="black"/>
<circle cx="683.5" cy="2222.5" r="40.5" fill="black"/>
<circle cx="815.5" cy="2269.5" r="46.5" fill="black"/>
<circle cx="677.5" cy="2344.5" r="46.5" fill="black"/>
<ellipse cx="621" cy="2450.5" rx="28" ry="24.5" fill="black"/>
<path d="M795 2459L928 2332V2459H795Z" fill="black" stroke="black"/>
<path d="M712 2535L786 2475H939V2535H712Z" fill="black" stroke="black"/>
<path d="M764 2611.5V2557H941V2611.5H764Z" fill="black"/>
<path d="M764 2611.5V2557H941V2611.5H764Z" fill="black"/>
<path d="M764 2611.5V2557H941V2611.5H764Z" fill="black"/>
<path d="M764 2611.5V2557H941V2611.5H764Z" fill="black"/>
<path d="M764 2611.5V2557H941V2611.5H764Z" stroke="black"/>
<path d="M764 2696.5V2642H941V2696.5H764Z" fill="black"/>
<path d="M764 2696.5V2642H941V2696.5H764Z" fill="black"/>
<path d="M764 2696.5V2642H941V2696.5H764Z" fill="black"/>
<path d="M764 2696.5V2642H941V2696.5H764Z" fill="black"/>
<path d="M764 2696.5V2642H941V2696.5H764Z" stroke="black"/>
<path d="M764 2781.5V2727H941V2781.5H764Z" fill="black"/>
<path d="M764 2781.5V2727H941V2781.5H764Z" fill="black"/>
<path d="M764 2781.5V2727H941V2781.5H764Z" fill="black"/>
<path d="M764 2781.5V2727H941V2781.5H764Z" fill="black"/>
<path d="M764 2781.5V2727H941V2781.5H764Z" stroke="black"/>
<path d="M764 2871.5V2817H941V2871.5H764Z" fill="black"/>
<path d="M764 2871.5V2817H941V2871.5H764Z" fill="black"/>
<path d="M764 2871.5V2817H941V2871.5H764Z" fill="black"/>
<path d="M764 2871.5V2817H941V2871.5H764Z" fill="black"/>
<path d="M764 2871.5V2817H941V2871.5H764Z" stroke="black"/>
<path d="M764 2970.5V2916H941V2970.5H764Z" fill="black"/>
<path d="M764 2970.5V2916H941V2970.5H764Z" fill="black"/>
<path d="M764 2970.5V2916H941V2970.5H764Z" fill="black"/>
<path d="M764 2970.5V2916H941V2970.5H764Z" fill="black"/>
<path d="M764 2970.5V2916H941V2970.5H764Z" stroke="black"/>
<path d="M707.5 2555L505 2550L594.5 2619H707.5V2555Z" fill="black" stroke="black"/>
<path d="M617 2665H505V2727H691L617 2665Z" fill="black" stroke="black"/>
<path d="M505 2817V2759.5V2756H702.5L715.5 2766.5H702.5V2817H505Z" fill="black" stroke="black"/>
<path d="M514 2966V2900H646L723.5 2970.5L711.5 2966H514Z" fill="black" stroke="black"/>
<path d="M303 2631.5L443 2509V2631.5H303Z" fill="black" stroke="black"/>
<path d="M297 2704V2648H468V2704H297Z" fill="black" stroke="black"/>
<path d="M456 2727L361 2815H456V2727Z" fill="black" stroke="black"/>
<path d="M285 2901.5L336.5 2844H459V2901.5H285Z" fill="black" stroke="black"/>
<path d="M297 2979.5V2925H468V2979.5H297Z" fill="black" stroke="black"/>
</svg>
